<?xml version="1.0" encoding="utf-8"?>
<!-- Generator: Adobe Illustrator 28.2.0, SVG Export Plug-In . SVG Version: 6.00 Build 0)  -->
<svg version="1.2" baseProfile="tiny" id="Capa_1" xmlns="http://www.w3.org/2000/svg" xmlns:xlink="http://www.w3.org/1999/xlink"
	 x="0px" y="0px" viewBox="0 0 1920 1080" overflow="visible" xml:space="preserve">
<g>
	<path fill="#CCCCCC" d="M1805.6,801.7H194.6c-52.8,0-96-43.2-96-96V291.2c0-52.8,43.2-96,96-96h1611.1c52.8,0,96,43.2,96,96v414.5
		C1901.7,758.5,1858.5,801.7,1805.6,801.7z"/>
	<circle cx="318.8" cy="797.6" r="87.2"/>
	<circle cx="825.6" cy="797.6" r="87.2"/>
	<circle cx="1324.2" cy="797.6" r="87.2"/>
	<circle cx="1723" cy="797.6" r="87.2"/>
	<path fill="#AADCFF" d="M204.4,610.6h-87.1c-10.3,0-18.8-8.4-18.8-18.8V322c0-10.3,8.4-18.8,18.8-18.8h87.1
		c10.3,0,18.8,8.4,18.8,18.8v269.9C223.2,602.2,214.7,610.6,204.4,610.6z"/>
	<path fill="#AADCFF" d="M1888.2,419.5h-97.7c-7.4,0-13.4-6.1-13.4-13.4v-131c0-7.4,6.1-13.4,13.4-13.4h97.7
		c7.4,0,13.4,6.1,13.4,13.4v131C1901.7,413.5,1895.6,419.5,1888.2,419.5z"/>
	<path fill="#AADCFF" d="M1612.3,743.6h-169.2c-8.3,0-15.1-6.8-15.1-15.1V318.3c0-8.3,6.8-15.1,15.1-15.1h169.2
		c8.3,0,15.1,6.8,15.1,15.1v410.1C1627.5,736.8,1620.7,743.6,1612.3,743.6z"/>
	<path fill="#AADCFF" d="M1213.5,743.6h-169.2c-8.3,0-15.1-6.8-15.1-15.1V318.3c0-8.3,6.8-15.1,15.1-15.1h169.2
		c8.3,0,15.1,6.8,15.1,15.1v410.1C1228.6,736.8,1221.8,743.6,1213.5,743.6z"/>
	<path fill="#AADCFF" d="M590.3,743.6H421.1c-8.3,0-15.1-6.8-15.1-15.1V318.3c0-8.3,6.8-15.1,15.1-15.1h169.2
		c8.3,0,15.1,6.8,15.1,15.1v410.1C605.4,736.8,598.6,743.6,590.3,743.6z"/>
	<path d="M212.2,261.6H85.5c0,0-67.1,34.6-67.1,124.6s38.7,0,38.7,0s2.9-83.1,37.5-83.1s117.7,1.2,117.7,1.2
		S226.1,282.4,212.2,261.6z"/>
	<path d="M931.2,486H769.8c-17.3,0-31.5-14.2-31.5-31.5v-78.3c0-17.3,14.2-31.5,31.5-31.5h161.4c17.3,0,31.5,14.2,31.5,31.5v78.3
		C962.7,471.8,948.6,486,931.2,486z"/>
	<circle fill="#FFFFFF" cx="318.8" cy="797.6" r="45.7"/>
	<circle fill="#FFFFFF" cx="825.6" cy="797.6" r="45.7"/>
	<circle fill="#FFFFFF" cx="1324.2" cy="797.6" r="45.7"/>
	<circle fill="#FFFFFF" cx="1723" cy="797.6" r="45.7"/>
</g>
</svg>
